<svg xmlns="http://www.w3.org/2000/svg" width="64" height="64" fill="none" viewBox="0 0 64 64"><g filter="url(#a)"><rect width="64" height="64" fill="#7631EA" rx="10"/><rect width="64" height="64" fill="url(#b)" rx="10"/></g><g filter="url(#c)"><path fill="#C4C4C4" d="M33.356 17.414c.123-.993-1.128-1.53-1.764-.758L17.346 33.965a1 1 0 0 0 .772 1.635H30.87a1 1 0 0 1 .992 1.122l-1.217 9.864c-.123.993 1.128 1.53 1.764.758l14.246-17.309a1 1 0 0 0-.772-1.635H33.13a1 1 0 0 1-.992-1.122l1.217-9.864Z"/><path fill="url(#d)" d="M33.356 17.414c.123-.993-1.128-1.53-1.764-.758L17.346 33.965a1 1 0 0 0 .772 1.635H30.87a1 1 0 0 1 .992 1.122l-1.217 9.864c-.123.993 1.128 1.53 1.764.758l14.246-17.309a1 1 0 0 0-.772-1.635H33.13a1 1 0 0 1-.992-1.122l1.217-9.864Z"/></g><defs><linearGradient id="b" x1="32" x2="32" y1="0" y2="64" gradientUnits="userSpaceOnUse"><stop stop-color="#8614F8"/><stop offset="1" stop-color="#760BE0"/></linearGradient><linearGradient id="d" x1="27.092" x2="38.108" y1="15.969" y2="47.892" gradientUnits="userSpaceOnUse"><stop stop-color="#fff"/><stop offset="1" stop-color="#CCBED5"/></linearGradient><filter id="a" width="64" height="65" x="0" y="0" color-interpolation-filters="sRGB" filterUnits="userSpaceOnUse"><feFlood flood-opacity="0" result="BackgroundImageFix"/><feBlend in="SourceGraphic" in2="BackgroundImageFix" result="shape"/><feColorMatrix in="SourceAlpha" result="hardAlpha" values="0 0 0 0 0 0 0 0 0 0 0 0 0 0 0 0 0 0 127 0"/><feOffset dy="1"/><feGaussianBlur stdDeviation=".5"/><feComposite in2="hardAlpha" k2="-1" k3="1" operator="arithmetic"/><feColorMatrix values="0 0 0 0 0.96178 0 0 0 0 0.955184 0 0 0 0 0.966963 0 0 0 0.25 0"/><feBlend in2="shape" result="effect1_innerShadow"/></filter><filter id="c" width="37.767" height="39.423" x="13.117" y="16.289" color-interpolation-filters="sRGB" filterUnits="userSpaceOnUse"><feFlood flood-opacity="0" result="BackgroundImageFix"/><feColorMatrix in="SourceAlpha" values="0 0 0 0 0 0 0 0 0 0 0 0 0 0 0 0 0 0 127 0"/><feOffset dy="4"/><feGaussianBlur stdDeviation="2"/><feColorMatrix values="0 0 0 0 0 0 0 0 0 0 0 0 0 0 0 0 0 0 0.15 0"/><feBlend in2="BackgroundImageFix" result="effect1_dropShadow"/><feBlend in="SourceGraphic" in2="effect1_dropShadow" result="shape"/></filter></defs></svg>