<svg xmlns="http://www.w3.org/2000/svg" width="40" height="45" version="1.0" viewBox="0 0 30 33.75"><defs><clipPath id="a"><path d="M.11 0H23v33.5H.11Zm0 0"/></clipPath><clipPath id="b"><path d="M.11 4H25v20H.11Zm0 0"/></clipPath><clipPath id="c"><path d="M.11 8H29v25.5H.11Zm0 0"/></clipPath><clipPath id="d"><path d="M3 5h26.89v28.5H3Zm0 0"/></clipPath><clipPath id="e"><path d="M.11 0h29.78v20H.11Zm0 0"/></clipPath><clipPath id="f"><path d="M9 0h20.89v30H9Zm0 0"/></clipPath></defs><g clip-path="url(#a)"><path fill="none" stroke="#fff" stroke-linecap="round" d="M.5 0h5.888" transform="matrix(.65007 -2.17558 2.13996 .63943 5.462 21.854)"/></g><g clip-path="url(#b)"><path fill="none" stroke="#fff" stroke-linecap="round" d="M.5 0h5.368" transform="matrix(-1.49628 -.26765 .26218 -1.4657 17.011 14.735)"/></g><g clip-path="url(#c)"><path fill="none" stroke="#fff" stroke-linecap="round" d="M.5 0h4.767" transform="matrix(-2.03041 -.83426 .84883 -2.06587 16.893 25.371)"/></g><g clip-path="url(#d)"><path fill="none" stroke="#fff" stroke-linecap="round" d="M.5 0h4.553" transform="matrix(1.76408 -1.4471 1.41651 1.7268 15.31 25.648)"/></g><path fill="none" stroke="#fff" stroke-linecap="round" d="M.501 0H5.6" transform="matrix(-.321 -1.4305 1.45284 -.326 18.138 22.92)"/><g clip-path="url(#e)"><path fill="none" stroke="#fff" stroke-linecap="round" d="M.5 0h5.163" transform="matrix(-2.17366 .07426 -.07626 -2.23215 22.564 6.562)"/></g><g clip-path="url(#f)"><path fill="none" stroke="#fff" stroke-linecap="round" d="M.5 0h4.225" transform="matrix(-.5092 -2.22264 2.17705 -.49876 24.353 18.052)"/></g><path fill="none" stroke="#fff" stroke-linecap="round" d="M.5 0h4.21" transform="matrix(-.37033 1.38209 -1.43823 -.38537 18.143 6.875)"/></svg>